<?xml version="1.0" encoding="utf-8"?>
<!-- Generator: Adobe Illustrator 21.1.0, SVG Export Plug-In . SVG Version: 6.00 Build 0)  -->
<svg version="1.1" id="Layer_1" xmlns="http://www.w3.org/2000/svg" xmlns:xlink="http://www.w3.org/1999/xlink" x="0px" y="0px"
	 viewBox="0 0 768 768" style="enable-background:new 0 0 768 768;" xml:space="preserve">
<style type="text/css">
	.st0{fill:none;stroke:#0071BC;stroke-width:3;}
	.st1{fill:none;stroke:#EE220C;stroke-width:3;}
	.st2{fill:#EE220C;}
	.st3{font-family:'MyriadPro-Regular';}
	.st4{font-size:46.668px;}
</style>
<g>
	<line class="st0" x1="29.1" y1="31" x2="148.5" y2="31"/>
	<line class="st0" x1="30.5" y1="149.3" x2="30.5" y2="30"/>
	<line class="st0" x1="148.9" y1="31" x2="268.3" y2="31"/>
	<line class="st1" x1="150.4" y1="149.3" x2="150.4" y2="30"/>
	<line class="st1" x1="29.1" y1="150.4" x2="148.5" y2="150.4"/>
	<line class="st0" x1="30.5" y1="268" x2="30.5" y2="148.6"/>
	<line class="st1" x1="148.9" y1="150.4" x2="268.3" y2="150.4"/>
	<line class="st1" x1="150.4" y1="268" x2="150.4" y2="148.6"/>
	<line class="st1" x1="29.1" y1="269.6" x2="148.5" y2="269.6"/>
	<line class="st0" x1="30.5" y1="387.2" x2="30.5" y2="267.8"/>
	<line class="st1" x1="148.9" y1="269.6" x2="268.3" y2="269.6"/>
	<line class="st1" x1="150.4" y1="387.2" x2="150.4" y2="267.8"/>
	<line class="st0" x1="267.9" y1="31" x2="387.4" y2="31"/>
	<line class="st1" x1="269.4" y1="149.3" x2="269.4" y2="30"/>
	<line class="st1" x1="267.9" y1="150.4" x2="387.4" y2="150.4"/>
	<line class="st1" x1="269.4" y1="268" x2="269.4" y2="148.6"/>
	<line class="st1" x1="267.9" y1="269.6" x2="387.4" y2="269.6"/>
	<line class="st1" x1="269.4" y1="387.2" x2="269.4" y2="267.8"/>
	
		<ellipse transform="matrix(0.7071 -0.7071 0.7071 0.7071 -170.4551 243.393)" class="st2" cx="208.6" cy="327.5" rx="13.7" ry="13.7"/>
	
		<ellipse transform="matrix(0.7071 -0.7071 0.7071 0.7071 -120.6872 125.1307)" class="st2" cx="90.7" cy="208.2" rx="13.7" ry="13.7"/>
	
		<ellipse transform="matrix(0.7071 -0.7071 0.7071 0.7071 -384.877 437.3529)" class="st2" cx="335.5" cy="683.3" rx="13.7" ry="13.7"/>
	
		<ellipse transform="matrix(0.7071 -0.7071 0.7071 0.7071 -300.1726 402.6986)" class="st2" cx="336" cy="563.7" rx="13.7" ry="13.7"/>
	
		<ellipse transform="matrix(0.7071 -0.7071 0.7071 0.7071 -50.8336 299.3307)" class="st2" cx="335.9" cy="211" rx="13.7" ry="13.7"/>
	
		<ellipse transform="matrix(0.7071 -0.7071 0.7071 0.7071 -133.1515 333.4067)" class="st2" cx="335.9" cy="327.4" rx="13.7" ry="13.7"/>
	<line class="st1" x1="29.1" y1="386.9" x2="148.5" y2="386.9"/>
	<line class="st0" x1="30.5" y1="505.2" x2="30.5" y2="385.8"/>
	<line class="st1" x1="148.9" y1="386.9" x2="268.3" y2="386.9"/>
	<line class="st1" x1="150.4" y1="505.2" x2="150.4" y2="385.8"/>
	<line class="st1" x1="29.1" y1="506.2" x2="148.5" y2="506.2"/>
	<line class="st0" x1="30.5" y1="623.8" x2="30.5" y2="504.5"/>
	<line class="st1" x1="148.9" y1="506.2" x2="268.3" y2="506.2"/>
	<line class="st1" x1="150.4" y1="623.8" x2="150.4" y2="504.5"/>
	<line class="st1" x1="29.1" y1="625.4" x2="148.5" y2="625.4"/>
	<line class="st0" x1="30.5" y1="743" x2="30.5" y2="623.7"/>
	<line class="st1" x1="148.9" y1="625.4" x2="268.3" y2="625.4"/>
	<line class="st1" x1="150.4" y1="743" x2="150.4" y2="623.7"/>
	<line class="st1" x1="267.9" y1="386.9" x2="387.4" y2="386.9"/>
	<line class="st1" x1="269.4" y1="505.2" x2="269.4" y2="385.8"/>
	<line class="st1" x1="267.9" y1="506.2" x2="387.4" y2="506.2"/>
	<line class="st1" x1="269.4" y1="623.8" x2="269.4" y2="504.5"/>
	<line class="st1" x1="267.9" y1="625.4" x2="387.4" y2="625.4"/>
	<line class="st1" x1="269.4" y1="743" x2="269.4" y2="623.7"/>
	
		<ellipse transform="matrix(0.7071 -0.7071 0.7071 0.7071 -197.8364 649.8025)" class="st2" cx="685.5" cy="563.7" rx="13.7" ry="13.7"/>
	
		<ellipse transform="matrix(0.7071 -0.7071 0.7071 0.7071 -372.3068 229.3549)" class="st2" cx="90.7" cy="564.1" rx="13.7" ry="13.7"/>
	<line class="st0" x1="386.4" y1="31" x2="505.8" y2="31"/>
	<line class="st1" x1="387.8" y1="149.3" x2="387.8" y2="30"/>
	<line class="st0" x1="506.2" y1="31" x2="625.6" y2="31"/>
	<line class="st1" x1="507.7" y1="149.3" x2="507.7" y2="30"/>
	<line class="st1" x1="386.4" y1="150.4" x2="505.8" y2="150.4"/>
	<line class="st1" x1="387.8" y1="268" x2="387.8" y2="148.6"/>
	<line class="st1" x1="506.2" y1="150.4" x2="625.6" y2="150.4"/>
	<line class="st1" x1="507.7" y1="268" x2="507.7" y2="148.6"/>
	<line class="st1" x1="386.4" y1="269.6" x2="505.8" y2="269.6"/>
	<line class="st1" x1="387.8" y1="387.2" x2="387.8" y2="267.8"/>
	<line class="st1" x1="506.2" y1="269.6" x2="625.6" y2="269.6"/>
	<line class="st1" x1="507.7" y1="387.2" x2="507.7" y2="267.8"/>
	<line class="st0" x1="625.2" y1="31" x2="744.7" y2="31"/>
	<line class="st1" x1="626.7" y1="149.3" x2="626.7" y2="30"/>
	<line class="st1" x1="625.2" y1="150.4" x2="744.7" y2="150.4"/>
	<line class="st1" x1="626.7" y1="268" x2="626.7" y2="148.6"/>
	<line class="st1" x1="625.2" y1="269.6" x2="744.7" y2="269.6"/>
	<line class="st1" x1="626.7" y1="387.2" x2="626.7" y2="267.8"/>
	
		<ellipse transform="matrix(0.7071 -0.7071 0.7071 0.7071 -65.8037 496.0438)" class="st2" cx="565.9" cy="327.5" rx="13.7" ry="13.7"/>
	
		<ellipse transform="matrix(0.7071 -0.7071 0.7071 0.7071 -27.127 590.1787)" class="st2" cx="698.8" cy="327.8" rx="13.7" ry="13.7"/>
	<line class="st1" x1="386.4" y1="386.9" x2="505.8" y2="386.9"/>
	<line class="st1" x1="387.8" y1="505.2" x2="387.8" y2="385.8"/>
	<line class="st1" x1="506.2" y1="386.9" x2="625.6" y2="386.9"/>
	<line class="st1" x1="507.7" y1="505.2" x2="507.7" y2="385.8"/>
	<line class="st1" x1="386.4" y1="506.2" x2="505.8" y2="506.2"/>
	<line class="st1" x1="387.8" y1="623.8" x2="387.8" y2="504.5"/>
	<line class="st1" x1="506.2" y1="506.2" x2="625.6" y2="506.2"/>
	<line class="st1" x1="507.7" y1="623.8" x2="507.7" y2="504.5"/>
	<line class="st1" x1="386.4" y1="625.4" x2="505.8" y2="625.4"/>
	<line class="st1" x1="387.8" y1="743" x2="387.8" y2="623.7"/>
	<line class="st1" x1="506.2" y1="625.4" x2="625.6" y2="625.4"/>
	<line class="st1" x1="507.7" y1="743" x2="507.7" y2="623.7"/>
	<line class="st1" x1="625.2" y1="386.9" x2="744.7" y2="386.9"/>
	<line class="st1" x1="626.7" y1="505.2" x2="626.7" y2="385.8"/>
	<line class="st1" x1="625.2" y1="506.2" x2="744.7" y2="506.2"/>
	<line class="st1" x1="626.7" y1="623.8" x2="626.7" y2="504.5"/>
	<line class="st1" x1="625.2" y1="625.4" x2="744.7" y2="625.4"/>
	<line class="st1" x1="626.7" y1="743" x2="626.7" y2="623.7"/>
	
		<ellipse transform="matrix(0.7071 -0.7071 0.7071 0.7071 -352.4494 515.7073)" class="st2" cx="446.3" cy="683.3" rx="13.7" ry="13.7"/>
	
		<ellipse transform="matrix(0.7071 -0.7071 0.7071 0.7071 -267.6554 482.0056)" class="st2" cx="448" cy="564.1" rx="13.7" ry="13.7"/>
	<text transform="matrix(1 0 0 1 260.5054 340.4873)" class="st3 st4">x</text>
	<text transform="matrix(1 0 0 1 438.4258 635.0801)" class="st3 st4">x</text>
	<text transform="matrix(1 0 0 1 321.7563 635.0801)" class="st3 st4">x</text>
	<text transform="matrix(1 0 0 1 21.3306 578.2021)" class="st3 st4">x</text>
	<text transform="matrix(1 0 0 1 617.8066 341.9463)" class="st3 st4">x</text>
	<text transform="matrix(1 0 0 1 139.4604 222.3594)" class="st3 st4">x</text>
	<text transform="matrix(1 0 0 1 259.0464 223.8174)" class="st3 st4">x</text>
</g>
</svg>
